HIERARCHY
ROOT Hip
{
	OFFSET 0 1.131 0.0052
	CHANNELS 6 Xposition Yposition Zposition Xrotation Yrotation Zrotation
	JOINT Abdomen
	{
		OFFSET 0 -0.047353 -0.05
		CHANNELS 3 Xrotation Zrotation Yrotation
		JOINT Chest
		{
			OFFSET 0 0.132153 0.007439
			CHANNELS 3 Xrotation Zrotation Yrotation
			JOINT Neck
			{
				OFFSET 0 0.3078 0.006161
				CHANNELS 3 Xrotation Zrotation Yrotation
				JOINT Head_comp
				{
					OFFSET 0 0.0884 0.013
					CHANNELS 3 Xrotation Yrotation Zrotation
					End Site
					{
						OFFSET -0 0.156 0.0624
					}
				}
			}
			JOINT Left_Collar
			{
				OFFSET 0.02282 0.250342 0.017193
				CHANNELS 2 Yrotation Zrotation
				JOINT Left_Shoulder
				{
					OFFSET 0.15421 0 0
					CHANNELS 3 Xrotation Yrotation Zrotation
					JOINT Left_Forearm
					{
						OFFSET 0.265212 0 0
						CHANNELS 2 Yrotation Xrotation
						JOINT Left_Hand
						{
							OFFSET 0.27571 0 0
							CHANNELS 2 Zrotation Yrotation
							JOINT L1ProxPhalanx
							{
								OFFSET 0.014142 0.001733 0.014142
								CHANNELS 3 Yrotation Zrotation Xrotation
								JOINT L1MidPhalanx
								{
									OFFSET 0.04 0 0
									CHANNELS 1 Zrotation
									JOINT L1DistPhalanx
									{
										OFFSET 0.035 0 0
										CHANNELS 1 Zrotation
										End Site
										{
											OFFSET 0.029 -0 -0
										}
									}
								}
							}
							JOINT L2ProxPhalanx
							{
								OFFSET 0.0821037 0.001578 0.0219996
								CHANNELS 2 Yrotation Zrotation
								JOINT L2MidPhalanx
								{
									OFFSET 0.04 0 0
									CHANNELS 1 Zrotation
									JOINT L2DistPhalanx
									{
										OFFSET 0.028 0 0
										CHANNELS 1 Zrotation
										End Site
										{
											OFFSET 0.02 -0 -0
										}
									}
								}
							}
							JOINT L3ProxPhalanx
							{
								OFFSET 0.083 0 0
								CHANNELS 2 Yrotation Zrotation
								JOINT L3MidPhalanx
								{
									OFFSET 0.053 0 0
									CHANNELS 1 Zrotation
									JOINT L3DistPhalanx
									{
										OFFSET 0.03 0 0
										CHANNELS 1 Zrotation
										End Site
										{
											OFFSET 0.023 -0 -0
										}
									}
								}
							}
							JOINT L4ProxPhalanx
							{
								OFFSET 0.077274 -0.000761 -0.0207055
								CHANNELS 2 Yrotation Zrotation
								JOINT L4MidPhalanx
								{
									OFFSET 0.05 0 0
									CHANNELS 1 Zrotation
									JOINT L4DistPhalanx
									{
										OFFSET 0.03 0 0
										CHANNELS 1 Zrotation
										End Site
										{
											OFFSET 0.023 -0 -0
										}
									}
								}
							}
							JOINT L5ProxPhalanx
							{
								OFFSET 0.0675499 -0.001644 -0.039
								CHANNELS 2 Yrotation Zrotation
								JOINT L5MidPhalanx
								{
									OFFSET 0.04 0 0
									CHANNELS 1 Zrotation
									JOINT L5DistPhalanx
									{
										OFFSET 0.021 0 0
										CHANNELS 1 Zrotation
										End Site
										{
											OFFSET 0.022 -0 -0
										}
									}
								}
							}
						}
					}
				}
			}
			JOINT Right_Collar
			{
				OFFSET -0.02282 0.250342 0.017193
				CHANNELS 2 Yrotation Zrotation
				JOINT Right_Shoulder
				{
					OFFSET -0.15421 0 0
					CHANNELS 3 Xrotation Yrotation Zrotation
					JOINT Right_Forearm
					{
						OFFSET -0.265212 0 0
						CHANNELS 2 Yrotation Xrotation
						JOINT Right_Hand
						{
							OFFSET -0.27571 3e-006 0
							CHANNELS 2 Zrotation Yrotation
							JOINT R1ProxPhalanx
							{
								OFFSET -0.014142 0.001733 0.014142
								CHANNELS 3 Yrotation Zrotation Xrotation
								JOINT R1MidPhalanx
								{
									OFFSET -0.04 0 0
									CHANNELS 1 Zrotation
									JOINT R1DistPhalanx
									{
										OFFSET -0.035 0 0
										CHANNELS 1 Zrotation
										End Site
										{
											OFFSET -0.029 -0 -0
										}
									}
								}
							}
							JOINT R2ProxPhalanx
							{
								OFFSET -0.0821037 0.001578 0.0219996
								CHANNELS 2 Yrotation Zrotation
								JOINT R2MidPhalanx
								{
									OFFSET -0.04 0 0
									CHANNELS 1 Zrotation
									JOINT R2DistPhalanx
									{
										OFFSET -0.028 0 0
										CHANNELS 1 Zrotation
										End Site
										{
											OFFSET -0.02 -0 -0
										}
									}
								}
							}
							JOINT R3ProxPhalanx
							{
								OFFSET -0.083 0 0
								CHANNELS 2 Yrotation Zrotation
								JOINT R3MidPhalanx
								{
									OFFSET -0.053 0 0
									CHANNELS 1 Zrotation
									JOINT R3DistPhalanx
									{
										OFFSET -0.03 0 0
										CHANNELS 1 Zrotation
										End Site
										{
											OFFSET -0.023 -0 -0
										}
									}
								}
							}
							JOINT R4ProxPhalanx
							{
								OFFSET -0.077274 -0.000761 -0.0207055
								CHANNELS 2 Yrotation Zrotation
								JOINT R4MidPhalanx
								{
									OFFSET -0.05 0 0
									CHANNELS 1 Zrotation
									JOINT R4DistPhalanx
									{
										OFFSET -0.03 0 0
										CHANNELS 1 Zrotation
										End Site
										{
											OFFSET -0.023 -0 -0
										}
									}
								}
							}
							JOINT R5ProxPhalanx
							{
								OFFSET -0.0675499 -0.001644 -0.039
								CHANNELS 2 Yrotation Zrotation
								JOINT R5MidPhalanx
								{
									OFFSET -0.04 0 0
									CHANNELS 1 Zrotation
									JOINT R5DistPhalanx
									{
										OFFSET -0.021 0 0
										CHANNELS 1 Zrotation
										End Site
										{
											OFFSET -0.022 -0 -0
										}
									}
								}
							}
						}
					}
				}
			}
		}
	}
	JOINT Left_Thigh
	{
		OFFSET 0.1118 -0.1612 -0.0442
		CHANNELS 3 Xrotation Zrotation Yrotation
		JOINT Left_Shin
		{
			OFFSET 0 -0.477856 0
			CHANNELS 1 Xrotation
			JOINT Left_Foot
			{
				OFFSET 0 -0.431952 0
				CHANNELS 2 Xrotation Zrotation
				JOINT Left_Toe
				{
					OFFSET 0 -0.0442 0.119
					CHANNELS 1 Xrotation
					End Site
					{
						OFFSET -0 -0 0.07
					}
				}
			}
		}
	}
	JOINT Right_Thigh
	{
		OFFSET -0.1118 -0.1612 -0.0442
		CHANNELS 3 Xrotation Zrotation Yrotation
		JOINT Right_Shin
		{
			OFFSET 0 -0.477856 0
			CHANNELS 1 Xrotation
			JOINT Right_Foot
			{
				OFFSET 0 -0.431952 0
				CHANNELS 2 Xrotation Zrotation
				JOINT Right_Toe
				{
					OFFSET 0 -0.0442 0.119
					CHANNELS 1 Xrotation
					End Site
					{
						OFFSET -0 -0 0.07
					}
				}
			}
		}
	}
}
MOTION
Frames: 6
Frame Time: 0.009975
-0.103545 -0.0600559 0.045935 -9.42027e-013 3.87501e-008 -5.10939e-006 0 -0 0 0 -0 0 0 -0 0 -0.712448 0.297311 5.84782e-013 9.63388 -23.0348 12.1001 -9.5629 -27.689 -122.064 -5.65194 -4.86653 -1.74294 -40.5316 -43.5896 103.283 -7.10789 -4.81548 2.69559 -7.40342 -2.98992 -6.72733 5.89092 0.508958 -5.4973 -5.3917 11.1257 1.19015 -12.1062 -9.35422 19.4153 3.33565 -41.2194 -1.46018 3.89533 25.2796 -5.86747 38.7704 34.1002 45.5931 16.9221 -1.89337 -12.5411 55.0163 39.4956 92.0572 6.99233 2.08103 0.539119 5.83703 1.35847 3.99889 -9.01984 -0.18604 2.41242 5.66464 -18.9587 -0.693991 6.43712 3.06984 -30.9154 -2.75638 40.3397 -27.5452 0.425354 -0.519869 -0.0038595 0.0240216 -0.449358 0.519888 0 0.436759 -0.519868 -0.00396298 2.41484e-006 -0.436743 0.519888 0 
-0.103498 -0.060057 0.0460204 -1.71836e-012 3.915e-008 -5.10938e-006 0 -0 0 0 -0 0 0 -0 0 -0.712454 0.297199 2.79648e-012 9.63388 -23.0348 12.1001 -9.5629 -27.689 -122.064 -5.65194 -4.86653 -1.74294 -40.5316 -43.5896 103.283 -7.10789 -4.81548 2.69559 -7.40342 -2.98992 -6.72733 5.89092 0.508958 -5.4973 -5.3917 11.1257 1.19015 -12.1062 -9.35422 19.4153 3.33565 -41.2194 -1.46018 3.86873 25.127 -5.51529 38.3096 34.0942 46.487 16.8066 -1.88044 -12.4555 54.6722 39.2641 91.6873 7.38019 2.61232 0.79259 6.08649 1.91596 4.31398 -8.83808 0.2698 3.02101 6.11722 -18.7506 -0.0612851 6.95636 3.48682 -30.4503 -2.16211 40.2352 -26.3852 0.430731 -0.522846 -0.0039307 0.0240216 -0.454735 0.522866 0 0.442136 -0.522846 -0.00403476 2.27522e-006 -0.44212 0.522866 0 
-0.103441 -0.0600583 0.04613 -3.76641e-013 3.97128e-008 -5.10938e-006 0 -0 0 0 -0 0 0 -0 0 -0.712464 0.297042 4.21826e-012 9.63388 -23.0348 12.1001 -9.5629 -27.689 -122.064 -5.65194 -4.86653 -1.74294 -40.5316 -43.5896 103.283 -7.10789 -4.81548 2.69559 -7.40342 -2.98992 -6.72733 5.89092 0.508958 -5.4973 -5.3917 11.1257 1.19015 -12.1062 -9.35422 19.4153 3.33565 -41.2194 -1.46018 3.83623 24.9419 -5.09241 37.7654 34.1012 47.5297 16.6654 -1.86464 -12.3509 54.3281 39.0326 91.3173 7.76805 3.14361 1.04606 6.33595 2.47345 4.62908 -8.65633 0.725641 3.6296 6.5698 -18.5425 0.571422 7.4756 3.90381 -29.9851 -1.56784 40.1306 -25.2253 0.437635 -0.526394 -0.00402081 0.0240216 -0.461638 0.526414 0 0.44904 -0.526393 -0.00412559 8.6658e-007 -0.449022 0.526414 0 
-0.103379 -0.0600599 0.046258 1.20594e-012 4.03858e-008 -5.10938e-006 0 -0 0 0 -0 0 0 -0 0 -0.712477 0.296864 5.42827e-012 9.63388 -23.0348 12.1001 -9.5629 -27.689 -122.064 -5.65194 -4.86653 -1.74294 -40.5316 -43.5896 103.283 -7.10789 -4.81548 2.69559 -7.40342 -2.98992 -6.72733 5.89092 0.508958 -5.4973 -5.3917 11.1257 1.19015 -12.1062 -9.35422 19.4153 3.33565 -41.2194 -1.46018 3.79838 24.7277 -4.61279 37.1552 34.1319 48.6847 16.501 -1.84625 -12.229 53.984 38.8011 90.9474 8.15591 3.6749 1.29953 6.5854 3.03094 4.94417 -8.47457 1.18148 4.23819 7.02237 -18.3344 1.20413 7.99484 4.3208 -29.5199 -0.973561 40.0261 -24.0653 0.445699 -0.530318 -0.00412544 0.0240216 -0.469702 0.530339 0 0.457105 -0.530317 -0.00423101 8.36698e-007 -0.457086 0.530339 0 
-0.103312 -0.0600617 0.0464025 2.02129e-012 4.11564e-008 -5.10938e-006 0 -0 0 0 -0 0 0 -0 0 -0.712491 0.296673 6.54049e-012 9.63388 -23.0348 12.1001 -9.5629 -27.689 -122.064 -5.65194 -4.86653 -1.74294 -40.5316 -43.5896 103.283 -7.10789 -4.81548 2.69559 -7.40342 -2.98992 -6.72733 5.89092 0.508958 -5.4973 -5.3917 11.1257 1.19015 -12.1062 -9.35422 19.4153 3.33565 -41.2194 -1.46018 3.75566 24.487 -4.08539 36.4923 34.19 49.9254 16.3154 -1.82548 -12.0915 53.6398 38.5697 90.5775 8.54378 4.20619 1.553 6.83486 3.58843 5.25926 -8.29282 1.63732 4.84678 7.47495 -18.1263 1.83684 8.51408 4.73778 -29.0548 -0.379287 39.9216 -22.9054 0.454798 -0.534517 -0.00424301 0.0240216 -0.4788 0.534539 0 0.466203 -0.534517 -0.00434941 1.70755e-006 -0.466185 0.534539 0 
-0.103242 -0.0600637 0.0465617 1.01597e-012 4.20146e-008 -5.10938e-006 0 -0 0 0 -0 0 0 -0 0 -0.712507 0.296471 7.54228e-012 9.63388 -23.0348 12.1001 -9.5629 -27.689 -122.064 -5.65194 -4.86653 -1.74294 -40.5316 -43.5896 103.283 -7.10789 -4.81548 2.69559 -7.40342 -2.98992 -6.72733 5.89092 0.508958 -5.4973 -5.3917 11.1257 1.19015 -12.1062 -9.35422 19.4153 3.33565 -41.2194 -1.46018 3.70849 24.2224 -3.51738 35.7881 34.2781 51.23 16.1104 -1.80255 -11.9396 53.2957 38.3382 90.2075 8.93164 4.73748 1.80647 7.08432 4.14592 5.57436 -8.11107 2.09316 5.45537 7.92753 -17.9182 2.46954 9.03332 5.15477 -28.5896 0.214988 39.8171 -21.7454 0.464825 -0.538918 -0.00437227 0.0240216 -0.488827 0.53894 0 0.476231 -0.538917 -0.00447955 1.24364e-006 -0.476211 0.53894 0 
